<?xml version="1.0" encoding="UTF-8" standalone="no"?>
<!DOCTYPE svg PUBLIC "-//W3C//DTD SVG 1.1//EN" "http://www.w3.org/Graphics/SVG/1.1/DTD/svg11.dtd">
<svg version="1.1" xmlns="http://www.w3.org/2000/svg" xmlns:xlink="http://www.w3.org/1999/xlink" preserveAspectRatio="xMidYMid meet" viewBox="0 0 600 600" width="600" height="600"><defs><path d="M240 0L280 0L280 40L240 40L240 0Z" id="by1HVtE0k"></path><path d="M240 40L280 40L280 80L240 80L240 40Z" id="i6fh3IrF9"></path><path d="M240 80L280 80L280 120L240 120L240 80Z" id="at5BP8Hu2"></path><path d="M240 160L280 160L280 200L240 200L240 160Z" id="b61at1TroL"></path><path d="M240 200L280 200L280 240L240 240L240 200Z" id="aShi9MWDx"></path><path d="M0 0L240 0L240 240L0 240L0 0Z" id="b12Xsed0Qa"></path><path d="M280 0L320 0L320 40L280 40L280 0Z" id="a2gk5qDKXT"></path><path d="M280 40L320 40L320 80L280 80L280 40Z" id="b6mAK9Agb"></path><path d="M280 80L320 80L320 120L280 120L280 80Z" id="e5gys3RgbW"></path><path d="M280 120L320 120L320 160L280 160L280 120Z" id="cgwevw0W2"></path><path d="M280 160L320 160L320 200L280 200L280 160Z" id="h2WOLgshJs"></path><path d="M280 200L320 200L320 240L280 240L280 200Z" id="b2nj6z0Rw"></path><path d="M320 0L360 0L360 40L320 40L320 0Z" id="alysRbYbS"></path><path d="M320 40L360 40L360 80L320 80L320 40Z" id="a6WTRi5Jk8"></path><path d="M320 80L360 80L360 120L320 120L320 80Z" id="caeu84nwE"></path><path d="M320 120L360 120L360 160L320 160L320 120Z" id="aG9BvKluR"></path><path d="M320 160L360 160L360 200L320 200L320 160Z" id="l2Cs3zxupS"></path><path d="M320 200L360 200L360 240L320 240L320 200Z" id="b48cgYQ0db"></path><path d="M360 0L600 0L600 240L360 240L360 0Z" id="c3hLfwM6fB"></path><path d="M240 240L240 280L200 280L200 240L240 240Z" id="a2uTDBzho"></path><path d="M200 240L200 280L160 280L160 240L200 240Z" id="b71ExWSbh"></path><path d="M160 240L160 280L120 280L120 240L160 240Z" id="k2IChwff2R"></path><path d="M120 240L120 280L80 280L80 240L120 240Z" id="d2Whi3LHrQ"></path><path d="M80 240L80 280L40 280L40 240L80 240Z" id="e84GNQoIDu"></path><path d="M40 240L40 280L0 280L0 240L40 240Z" id="a2GKDmWmM4"></path><path d="M240 280L240 320L200 320L200 280L240 280Z" id="aca3HIK0"></path><path d="M240 120L280 120L280 160L240 160L240 120Z" id="a3HaeBwRi2"></path><path d="M160 280L160 320L120 320L120 280L160 280Z" id="b2RZSndN6K"></path><path d="M120 280L120 320L80 320L80 280L120 280Z" id="b3QJNKM2z7"></path><path d="M80 280L80 320L40 320L40 280L80 280Z" id="b2SP8HsCq5"></path><path d="M40 280L40 320L0 320L0 280L40 280Z" id="avO4Cq2HF"></path><path d="M240 320L240 360L200 360L200 320L240 320Z" id="a2zkfqnse8"></path><path d="M200 320L200 360L160 360L160 320L200 320Z" id="a3N5AGtGuI"></path><path d="M160 320L160 360L120 360L120 320L160 320Z" id="dkiy1e3kS"></path><path d="M120 320L120 360L80 360L80 320L120 320Z" id="c4AgdtcQ1n"></path><path d="M80 320L80 360L40 360L40 320L80 320Z" id="a1i04WG9IB"></path><path d="M40 320L40 360L0 360L0 320L40 320Z" id="f3fMYYQTL"></path><path d="M240 360L240 600L0 600L0 360L240 360Z" id="b1wLMlk8mp"></path><path d="M600 240L600 280L560 280L560 240L600 240Z" id="bjtVnXBtl"></path><path d="M560 240L560 280L520 280L520 240L560 240Z" id="a29Sv5dIQH"></path><path d="M520 240L520 280L480 280L480 240L520 240Z" id="c2p81aW6JQ"></path><path d="M480 240L480 280L440 280L440 240L480 240Z" id="c4FpPo4VZ"></path><path d="M440 240L440 280L400 280L400 240L440 240Z" id="cbuar2ssE"></path><path d="M400 240L400 280L360 280L360 240L400 240Z" id="a3heTBOptz"></path><path d="M600 280L600 320L560 320L560 280L600 280Z" id="a2Za5HjtnB"></path><path d="M560 280L560 320L520 320L520 280L560 280Z" id="d7cD3lEeLc"></path><path d="M520 280L520 320L480 320L480 280L520 280Z" id="aV4ZMGz8v"></path><path d="M480 280L480 320L440 320L440 280L480 280Z" id="bgpiFNFd4"></path><path d="M440 280L440 320L400 320L400 280L440 280Z" id="a5WNpHbTR"></path><path d="M400 280L400 320L360 320L360 280L400 280Z" id="a2myh0Fw4z"></path><path d="M200 280L200 320L160 320L160 280L200 280Z" id="hov4SiP2C"></path><path d="M560 320L560 360L520 360L520 320L560 320Z" id="e1kqSNwk1S"></path><path d="M520 320L520 360L480 360L480 320L520 320Z" id="dMnzAyKMe"></path><path d="M480 320L480 360L440 360L440 320L480 320Z" id="b3YfXkOkcz"></path><path d="M440 320L440 360L400 360L400 320L440 320Z" id="d9GH3DHHi"></path><path d="M400 320L400 360L360 360L360 320L400 320Z" id="b4gvlercxW"></path><path d="M320 520L360 520L360 560L320 560L320 520Z" id="c1nONeU92r"></path><path d="M240 360L280 360L280 400L240 400L240 360Z" id="hujg8gKUH"></path><path d="M240 400L280 400L280 440L240 440L240 400Z" id="a2y4RsyUIA"></path><path d="M240 440L280 440L280 480L240 480L240 440Z" id="d2RXnd2yJw"></path><path d="M280 520L320 520L320 560L280 560L280 520Z" id="deayz7rM0"></path><path d="M240 480L280 480L280 520L240 520L240 480Z" id="af6I6EpeO"></path><path d="M240 560L280 560L280 600L240 600L240 560Z" id="b1UUoH6KzK"></path><path d="M280 360L320 360L320 400L280 400L280 360Z" id="b5kpYYUNVH"></path><path d="M280 400L320 400L320 440L280 440L280 400Z" id="hiK9c00OM"></path><path d="M240 520L280 520L280 560L240 560L240 520Z" id="e6Y0IcDgZz"></path><path d="M280 440L320 440L320 480L280 480L280 440Z" id="c4bFldTpNy"></path><path d="M280 480L320 480L320 520L280 520L280 480Z" id="aE4QLR5Kc"></path><path d="M280 560L320 560L320 600L280 600L280 560Z" id="ahBxambV"></path><path d="M320 360L360 360L360 400L320 400L320 360Z" id="b1SYaM2rL"></path><path d="M600 360L600 600L360 600L360 360L600 360Z" id="a1hxU3JcD8"></path><path d="M320 400L360 400L360 440L320 440L320 400Z" id="cf7Pblog9"></path><path d="M320 440L360 440L360 480L320 480L320 440Z" id="b1cOT6YQp5"></path><path d="M320 480L360 480L360 520L320 520L320 480Z" id="fjm2ozXOa"></path><path d="M320 560L360 560L360 600L320 600L320 560Z" id="f1RVxUFvhm"></path><path d="M39.47 45.47L200.53 45.47L200.53 200L39.47 200L39.47 45.47Z" id="b1DtmZP14s"></path><path d="M400 45.47L561.07 45.47L561.07 200L400 200L400 45.47Z" id="c2BW1Fvel"></path><path d="M400 400L561.07 400L561.07 554.53L400 554.53L400 400Z" id="b4YdN5q1f"></path><path d="M39.47 400L200.53 400L200.53 554.53L39.47 554.53L39.47 400Z" id="b2YwiJ33tb"></path><path d="M600 320L600 360L560 360L560 320L600 320Z" id="a7a15xUKM4"></path><path d="M100 82.11C100 94.31 89.89 104.21 77.44 104.21C64.98 104.21 54.87 94.31 54.87 82.11C54.87 69.91 64.98 60 77.44 60C89.89 60 100 69.91 100 82.11Z" id="bKL2cA7F"></path><path d="M180 82.11C180 94.31 169.89 104.21 157.44 104.21C144.98 104.21 134.87 94.31 134.87 82.11C134.87 69.91 144.98 60 157.44 60C169.89 60 180 69.91 180 82.11Z" id="bDz992x3"></path><path d="M100 157.89C100 170.09 89.89 180 77.44 180C64.98 180 54.87 170.09 54.87 157.89C54.87 145.69 64.98 135.79 77.44 135.79C89.89 135.79 100 145.69 100 157.89Z" id="bh6dHEV4"></path><path d="M180 157.89C180 170.09 169.89 180 157.44 180C144.98 180 134.87 170.09 134.87 157.89C134.87 145.69 144.98 135.79 157.44 135.79C169.89 135.79 180 145.69 180 157.89Z" id="a1hSLn9cPo"></path><path d="M462.56 84.84C462.56 97.04 452.45 106.95 440 106.95C427.55 106.95 417.44 97.04 417.44 84.84C417.44 72.64 427.55 62.74 440 62.74C452.45 62.74 462.56 72.64 462.56 84.84Z" id="a3bj2tgS23"></path><path d="M542.56 84.84C542.56 97.04 532.45 106.95 520 106.95C507.55 106.95 497.44 97.04 497.44 84.84C497.44 72.64 507.55 62.74 520 62.74C532.45 62.74 542.56 72.64 542.56 84.84Z" id="d6FU3CVGzp"></path><path d="M462.56 160.63C462.56 172.83 452.45 182.74 440 182.74C427.55 182.74 417.44 172.83 417.44 160.63C417.44 148.43 427.55 138.52 440 138.52C452.45 138.52 462.56 148.43 462.56 160.63Z" id="a1N7Fgz96f"></path><path d="M542.56 160.63C542.56 172.83 532.45 182.74 520 182.74C507.55 182.74 497.44 172.83 497.44 160.63C497.44 148.43 507.55 138.52 520 138.52C532.45 138.52 542.56 148.43 542.56 160.63Z" id="dakyoCB0Gf"></path><path d="M462.56 439.37C462.56 451.57 452.45 461.48 440 461.48C427.55 461.48 417.44 451.57 417.44 439.37C417.44 427.17 427.55 417.26 440 417.26C452.45 417.26 462.56 427.17 462.56 439.37Z" id="aiCqxvezA"></path><path d="M542.56 439.37C542.56 451.57 532.45 461.48 520 461.48C507.55 461.48 497.44 451.57 497.44 439.37C497.44 427.17 507.55 417.26 520 417.26C532.45 417.26 542.56 427.17 542.56 439.37Z" id="c1GrWYGtti"></path><path d="M462.56 515.16C462.56 527.36 452.45 537.26 440 537.26C427.55 537.26 417.44 527.36 417.44 515.16C417.44 502.96 427.55 493.05 440 493.05C452.45 493.05 462.56 502.96 462.56 515.16Z" id="bWRImxgzm"></path><path d="M542.56 515.16C542.56 527.36 532.45 537.26 520 537.26C507.55 537.26 497.44 527.36 497.44 515.16C497.44 502.96 507.55 493.05 520 493.05C532.45 493.05 542.56 502.96 542.56 515.16Z" id="aD9rCQuAF"></path><path d="M102.56 439.37C102.56 451.57 92.45 461.48 80 461.48C67.55 461.48 57.44 451.57 57.44 439.37C57.44 427.17 67.55 417.26 80 417.26C92.45 417.26 102.56 427.17 102.56 439.37Z" id="f3C00WSnel"></path><path d="M182.56 439.37C182.56 451.57 172.45 461.48 160 461.48C147.55 461.48 137.44 451.57 137.44 439.37C137.44 427.17 147.55 417.26 160 417.26C172.45 417.26 182.56 427.17 182.56 439.37Z" id="cRHaw54H3"></path><path d="M102.56 515.16C102.56 527.36 92.45 537.26 80 537.26C67.55 537.26 57.44 527.36 57.44 515.16C57.44 502.96 67.55 493.05 80 493.05C92.45 493.05 102.56 502.96 102.56 515.16Z" id="c11HSlludv"></path><path d="M182.56 515.16C182.56 527.36 172.45 537.26 160 537.26C147.55 537.26 137.44 527.36 137.44 515.16C137.44 502.96 147.55 493.05 160 493.05C172.45 493.05 182.56 502.96 182.56 515.16Z" id="a58ku0gaGm"></path><path d="M330 330L360 360L300 360L240 360L270 330L300 300L330 330Z" id="c4XqWIV4rn"></path><path d="M270 270L240 240L300 240L360 240L330 270L300 300L270 270Z" id="c8HfdIWi0"></path><path d="M270 330L240 360L240 300L240 240L270 270L300 300L270 330Z" id="d1vpK6Cowq"></path><path d="M330 270L360 240L360 300L360 360L330 330L300 300L330 270Z" id="c9KRVVq0R"></path></defs><g><g><g><use xlink:href="#by1HVtE0k" opacity="1" fill="#ffffff" fill-opacity="1"></use><g><use xlink:href="#by1HVtE0k" opacity="1" fill-opacity="0" stroke="#000000" stroke-width="2" stroke-opacity="1"></use></g></g><g><use xlink:href="#i6fh3IrF9" opacity="1" fill="#ffffff" fill-opacity="1"></use><g><use xlink:href="#i6fh3IrF9" opacity="1" fill-opacity="0" stroke="#000000" stroke-width="2" stroke-opacity="1"></use></g></g><g><use xlink:href="#at5BP8Hu2" opacity="1" fill="#ffffff" fill-opacity="1"></use><g><use xlink:href="#at5BP8Hu2" opacity="1" fill-opacity="0" stroke="#000000" stroke-width="2" stroke-opacity="1"></use></g></g><g><use xlink:href="#b61at1TroL" opacity="1" fill="#ffffff" fill-opacity="1"></use><g><use xlink:href="#b61at1TroL" opacity="1" fill-opacity="0" stroke="#000000" stroke-width="2" stroke-opacity="1"></use></g></g><g><use xlink:href="#aShi9MWDx" opacity="1" fill="#ffffff" fill-opacity="1"></use><g><use xlink:href="#aShi9MWDx" opacity="1" fill-opacity="0" stroke="#000000" stroke-width="2" stroke-opacity="1"></use></g></g><g><use xlink:href="#b12Xsed0Qa" opacity="1" fill="#ed2027" fill-opacity="1"></use><g><use xlink:href="#b12Xsed0Qa" opacity="1" fill-opacity="0" stroke="#000000" stroke-width="2" stroke-opacity="1"></use></g></g><g><use xlink:href="#a2gk5qDKXT" opacity="1" fill="#ffffff" fill-opacity="1"></use><g><use xlink:href="#a2gk5qDKXT" opacity="1" fill-opacity="0" stroke="#000000" stroke-width="2" stroke-opacity="1"></use></g></g><g><use xlink:href="#b6mAK9Agb" opacity="1" fill="#05a24b" fill-opacity="1"></use><g><use xlink:href="#b6mAK9Agb" opacity="1" fill-opacity="0" stroke="#000000" stroke-width="2" stroke-opacity="1"></use></g></g><g><use xlink:href="#e5gys3RgbW" opacity="1" fill="#05a24b" fill-opacity="1"></use><g><use xlink:href="#e5gys3RgbW" opacity="1" fill-opacity="0" stroke="#000000" stroke-width="2" stroke-opacity="1"></use></g></g><g><use xlink:href="#cgwevw0W2" opacity="1" fill="#05a24b" fill-opacity="1"></use><g><use xlink:href="#cgwevw0W2" opacity="1" fill-opacity="0" stroke="#000000" stroke-width="2" stroke-opacity="1"></use></g></g><g><use xlink:href="#h2WOLgshJs" opacity="1" fill="#05a24b" fill-opacity="1"></use><g><use xlink:href="#h2WOLgshJs" opacity="1" fill-opacity="0" stroke="#000000" stroke-width="2" stroke-opacity="1"></use></g></g><g><use xlink:href="#b2nj6z0Rw" opacity="1" fill="#05a24b" fill-opacity="1"></use><g><use xlink:href="#b2nj6z0Rw" opacity="1" fill-opacity="0" stroke="#000000" stroke-width="2" stroke-opacity="1"></use></g></g><g><use xlink:href="#alysRbYbS" opacity="1" fill="#ffffff" fill-opacity="1"></use><g><use xlink:href="#alysRbYbS" opacity="1" fill-opacity="0" stroke="#000000" stroke-width="2" stroke-opacity="1"></use></g></g><g><use xlink:href="#a6WTRi5Jk8" opacity="1" fill="#05a24b" fill-opacity="1"></use><g><use xlink:href="#a6WTRi5Jk8" opacity="1" fill-opacity="0" stroke="#000000" stroke-width="2" stroke-opacity="1"></use></g></g><g><use xlink:href="#caeu84nwE" opacity="1" fill="#ffffff" fill-opacity="1"></use><g><use xlink:href="#caeu84nwE" opacity="1" fill-opacity="0" stroke="#000000" stroke-width="2" stroke-opacity="1"></use></g></g><g><use xlink:href="#aG9BvKluR" opacity="1" fill="#ffffff" fill-opacity="1"></use><g><use xlink:href="#aG9BvKluR" opacity="1" fill-opacity="0" stroke="#000000" stroke-width="2" stroke-opacity="1"></use></g></g><g><use xlink:href="#l2Cs3zxupS" opacity="1" fill="#ffffff" fill-opacity="1"></use><g><use xlink:href="#l2Cs3zxupS" opacity="1" fill-opacity="0" stroke="#000000" stroke-width="2" stroke-opacity="1"></use></g></g><g><use xlink:href="#b48cgYQ0db" opacity="1" fill="#ffffff" fill-opacity="1"></use><g><use xlink:href="#b48cgYQ0db" opacity="1" fill-opacity="0" stroke="#000000" stroke-width="2" stroke-opacity="1"></use></g></g><g><use xlink:href="#c3hLfwM6fB" opacity="1" fill="#05a24b" fill-opacity="1"></use><g><use xlink:href="#c3hLfwM6fB" opacity="1" fill-opacity="0" stroke="#000000" stroke-width="2" stroke-opacity="1"></use></g></g><g><use xlink:href="#a2uTDBzho" opacity="1" fill="#ffffff" fill-opacity="1"></use><g><use xlink:href="#a2uTDBzho" opacity="1" fill-opacity="0" stroke="#000000" stroke-width="2" stroke-opacity="1"></use></g></g><g><use xlink:href="#b71ExWSbh" opacity="1" fill="#ffffff" fill-opacity="1"></use><g><use xlink:href="#b71ExWSbh" opacity="1" fill-opacity="0" stroke="#000000" stroke-width="2" stroke-opacity="1"></use></g></g><g><use xlink:href="#k2IChwff2R" opacity="1" fill="#ffffff" fill-opacity="1"></use><g><use xlink:href="#k2IChwff2R" opacity="1" fill-opacity="0" stroke="#000000" stroke-width="2" stroke-opacity="1"></use></g></g><g><use xlink:href="#d2Whi3LHrQ" opacity="1" fill="#ffffff" fill-opacity="1"></use><g><use xlink:href="#d2Whi3LHrQ" opacity="1" fill-opacity="0" stroke="#000000" stroke-width="2" stroke-opacity="1"></use></g></g><g><use xlink:href="#e84GNQoIDu" opacity="1" fill="#ed2027" fill-opacity="1"></use><g><use xlink:href="#e84GNQoIDu" opacity="1" fill-opacity="0" stroke="#000000" stroke-width="2" stroke-opacity="1"></use></g></g><g><use xlink:href="#a2GKDmWmM4" opacity="1" fill="#ffffff" fill-opacity="1"></use><g><use xlink:href="#a2GKDmWmM4" opacity="1" fill-opacity="0" stroke="#000000" stroke-width="2" stroke-opacity="1"></use></g></g><g><use xlink:href="#aca3HIK0" opacity="1" fill="#ed2027" fill-opacity="1"></use><g><use xlink:href="#aca3HIK0" opacity="1" fill-opacity="0" stroke="#000000" stroke-width="2" stroke-opacity="1"></use></g></g><g><use xlink:href="#a3HaeBwRi2" opacity="1" fill="#ffffff" fill-opacity="1"></use><g><use xlink:href="#a3HaeBwRi2" opacity="1" fill-opacity="0" stroke="#000000" stroke-width="2" stroke-opacity="1"></use></g></g><g><use xlink:href="#b2RZSndN6K" opacity="1" fill="#ed2027" fill-opacity="1"></use><g><use xlink:href="#b2RZSndN6K" opacity="1" fill-opacity="0" stroke="#000000" stroke-width="2" stroke-opacity="1"></use></g></g><g><use xlink:href="#b3QJNKM2z7" opacity="1" fill="#ed2027" fill-opacity="1"></use><g><use xlink:href="#b3QJNKM2z7" opacity="1" fill-opacity="0" stroke="#000000" stroke-width="2" stroke-opacity="1"></use></g></g><g><use xlink:href="#b2SP8HsCq5" opacity="1" fill="#ed2027" fill-opacity="1"></use><g><use xlink:href="#b2SP8HsCq5" opacity="1" fill-opacity="0" stroke="#000000" stroke-width="2" stroke-opacity="1"></use></g></g><g><use xlink:href="#avO4Cq2HF" opacity="1" fill="#ffffff" fill-opacity="1"></use><g><use xlink:href="#avO4Cq2HF" opacity="1" fill-opacity="0" stroke="#000000" stroke-width="2" stroke-opacity="1"></use></g></g><g><use xlink:href="#a2zkfqnse8" opacity="1" fill="#ffffff" fill-opacity="1"></use><g><use xlink:href="#a2zkfqnse8" opacity="1" fill-opacity="0" stroke="#000000" stroke-width="2" stroke-opacity="1"></use></g></g><g><use xlink:href="#a3N5AGtGuI" opacity="1" fill="#ffffff" fill-opacity="1"></use><g><use xlink:href="#a3N5AGtGuI" opacity="1" fill-opacity="0" stroke="#000000" stroke-width="2" stroke-opacity="1"></use></g></g><g><use xlink:href="#dkiy1e3kS" opacity="1" fill="#ffffff" fill-opacity="1"></use><g><use xlink:href="#dkiy1e3kS" opacity="1" fill-opacity="0" stroke="#000000" stroke-width="2" stroke-opacity="1"></use></g></g><g><use xlink:href="#c4AgdtcQ1n" opacity="1" fill="#ffffff" fill-opacity="1"></use><g><use xlink:href="#c4AgdtcQ1n" opacity="1" fill-opacity="0" stroke="#000000" stroke-width="2" stroke-opacity="1"></use></g></g><g><use xlink:href="#a1i04WG9IB" opacity="1" fill="#ffffff" fill-opacity="1"></use><g><use xlink:href="#a1i04WG9IB" opacity="1" fill-opacity="0" stroke="#000000" stroke-width="2" stroke-opacity="1"></use></g></g><g><use xlink:href="#f3fMYYQTL" opacity="1" fill="#ffffff" fill-opacity="1"></use><g><use xlink:href="#f3fMYYQTL" opacity="1" fill-opacity="0" stroke="#000000" stroke-width="2" stroke-opacity="1"></use></g></g><g><use xlink:href="#b1wLMlk8mp" opacity="1" fill="#254399" fill-opacity="1"></use><g><use xlink:href="#b1wLMlk8mp" opacity="1" fill-opacity="0" stroke="#000000" stroke-width="2" stroke-opacity="1"></use></g></g><g><use xlink:href="#bjtVnXBtl" opacity="1" fill="#ffffff" fill-opacity="1"></use><g><use xlink:href="#bjtVnXBtl" opacity="1" fill-opacity="0" stroke="#000000" stroke-width="2" stroke-opacity="1"></use></g></g><g><use xlink:href="#a29Sv5dIQH" opacity="1" fill="#ffffff" fill-opacity="1"></use><g><use xlink:href="#a29Sv5dIQH" opacity="1" fill-opacity="0" stroke="#000000" stroke-width="2" stroke-opacity="1"></use></g></g><g><use xlink:href="#c2p81aW6JQ" opacity="1" fill="#ffffff" fill-opacity="1"></use><g><use xlink:href="#c2p81aW6JQ" opacity="1" fill-opacity="0" stroke="#000000" stroke-width="2" stroke-opacity="1"></use></g></g><g><use xlink:href="#c4FpPo4VZ" opacity="1" fill="#ffffff" fill-opacity="1"></use><g><use xlink:href="#c4FpPo4VZ" opacity="1" fill-opacity="0" stroke="#000000" stroke-width="2" stroke-opacity="1"></use></g></g><g><use xlink:href="#cbuar2ssE" opacity="1" fill="#ffffff" fill-opacity="1"></use><g><use xlink:href="#cbuar2ssE" opacity="1" fill-opacity="0" stroke="#000000" stroke-width="2" stroke-opacity="1"></use></g></g><g><use xlink:href="#a3heTBOptz" opacity="1" fill="#ffffff" fill-opacity="1"></use><g><use xlink:href="#a3heTBOptz" opacity="1" fill-opacity="0" stroke="#000000" stroke-width="2" stroke-opacity="1"></use></g></g><g><use xlink:href="#a2Za5HjtnB" opacity="1" fill="#ffffff" fill-opacity="1"></use><g><use xlink:href="#a2Za5HjtnB" opacity="1" fill-opacity="0" stroke="#000000" stroke-width="2" stroke-opacity="1"></use></g></g><g><use xlink:href="#d7cD3lEeLc" opacity="1" fill="#ffde05" fill-opacity="1"></use><g><use xlink:href="#d7cD3lEeLc" opacity="1" fill-opacity="0" stroke="#000000" stroke-width="2" stroke-opacity="1"></use></g></g><g><use xlink:href="#aV4ZMGz8v" opacity="1" fill="#ffde05" fill-opacity="1"></use><g><use xlink:href="#aV4ZMGz8v" opacity="1" fill-opacity="0" stroke="#000000" stroke-width="2" stroke-opacity="1"></use></g></g><g><use xlink:href="#bgpiFNFd4" opacity="1" fill="#ffde05" fill-opacity="1"></use><g><use xlink:href="#bgpiFNFd4" opacity="1" fill-opacity="0" stroke="#000000" stroke-width="2" stroke-opacity="1"></use></g></g><g><use xlink:href="#a5WNpHbTR" opacity="1" fill="#ffde05" fill-opacity="1"></use><g><use xlink:href="#a5WNpHbTR" opacity="1" fill-opacity="0" stroke="#000000" stroke-width="2" stroke-opacity="1"></use></g></g><g><use xlink:href="#a2myh0Fw4z" opacity="1" fill="#ffde05" fill-opacity="1"></use><g><use xlink:href="#a2myh0Fw4z" opacity="1" fill-opacity="0" stroke="#000000" stroke-width="2" stroke-opacity="1"></use></g></g><g><use xlink:href="#hov4SiP2C" opacity="1" fill="#ed2027" fill-opacity="1"></use><g><use xlink:href="#hov4SiP2C" opacity="1" fill-opacity="0" stroke="#000000" stroke-width="2" stroke-opacity="1"></use></g></g><g><use xlink:href="#e1kqSNwk1S" opacity="1" fill="#ffde05" fill-opacity="1"></use><g><use xlink:href="#e1kqSNwk1S" opacity="1" fill-opacity="0" stroke="#000000" stroke-width="2" stroke-opacity="1"></use></g></g><g><use xlink:href="#dMnzAyKMe" opacity="1" fill="#ffffff" fill-opacity="1"></use><g><use xlink:href="#dMnzAyKMe" opacity="1" fill-opacity="0" stroke="#000000" stroke-width="2" stroke-opacity="1"></use></g></g><g><use xlink:href="#b3YfXkOkcz" opacity="1" fill="#ffffff" fill-opacity="1"></use><g><use xlink:href="#b3YfXkOkcz" opacity="1" fill-opacity="0" stroke="#000000" stroke-width="2" stroke-opacity="1"></use></g></g><g><use xlink:href="#d9GH3DHHi" opacity="1" fill="#ffffff" fill-opacity="1"></use><g><use xlink:href="#d9GH3DHHi" opacity="1" fill-opacity="0" stroke="#000000" stroke-width="2" stroke-opacity="1"></use></g></g><g><use xlink:href="#b4gvlercxW" opacity="1" fill="#ffffff" fill-opacity="1"></use><g><use xlink:href="#b4gvlercxW" opacity="1" fill-opacity="0" stroke="#000000" stroke-width="2" stroke-opacity="1"></use></g></g><g><use xlink:href="#c1nONeU92r" opacity="1" fill="#ffffff" fill-opacity="1"></use><g><use xlink:href="#c1nONeU92r" opacity="1" fill-opacity="0" stroke="#000000" stroke-width="2" stroke-opacity="1"></use></g></g><g><use xlink:href="#hujg8gKUH" opacity="1" fill="#ffffff" fill-opacity="1"></use><g><use xlink:href="#hujg8gKUH" opacity="1" fill-opacity="0" stroke="#000000" stroke-width="2" stroke-opacity="1"></use></g></g><g><use xlink:href="#a2y4RsyUIA" opacity="1" fill="#ffffff" fill-opacity="1"></use><g><use xlink:href="#a2y4RsyUIA" opacity="1" fill-opacity="0" stroke="#000000" stroke-width="2" stroke-opacity="1"></use></g></g><g><use xlink:href="#d2RXnd2yJw" opacity="1" fill="#ffffff" fill-opacity="1"></use><g><use xlink:href="#d2RXnd2yJw" opacity="1" fill-opacity="0" stroke="#000000" stroke-width="2" stroke-opacity="1"></use></g></g><g><use xlink:href="#deayz7rM0" opacity="1" fill="#254399" fill-opacity="1"></use><g><use xlink:href="#deayz7rM0" opacity="1" fill-opacity="0" stroke="#000000" stroke-width="2" stroke-opacity="1"></use></g></g><g><use xlink:href="#af6I6EpeO" opacity="1" fill="#ffffff" fill-opacity="1"></use><g><use xlink:href="#af6I6EpeO" opacity="1" fill-opacity="0" stroke="#000000" stroke-width="2" stroke-opacity="1"></use></g></g><g><use xlink:href="#b1UUoH6KzK" opacity="1" fill="#ffffff" fill-opacity="1"></use><g><use xlink:href="#b1UUoH6KzK" opacity="1" fill-opacity="0" stroke="#000000" stroke-width="2" stroke-opacity="1"></use></g></g><g><use xlink:href="#b5kpYYUNVH" opacity="1" fill="#254399" fill-opacity="1"></use><g><use xlink:href="#b5kpYYUNVH" opacity="1" fill-opacity="0" stroke="#000000" stroke-width="2" stroke-opacity="1"></use></g></g><g><use xlink:href="#hiK9c00OM" opacity="1" fill="#254399" fill-opacity="1"></use><g><use xlink:href="#hiK9c00OM" opacity="1" fill-opacity="0" stroke="#000000" stroke-width="2" stroke-opacity="1"></use></g></g><g><use xlink:href="#e6Y0IcDgZz" opacity="1" fill="#254399" fill-opacity="1"></use><g><use xlink:href="#e6Y0IcDgZz" opacity="1" fill-opacity="0" stroke="#000000" stroke-width="2" stroke-opacity="1"></use></g></g><g><use xlink:href="#c4bFldTpNy" opacity="1" fill="#254399" fill-opacity="1"></use><g><use xlink:href="#c4bFldTpNy" opacity="1" fill-opacity="0" stroke="#000000" stroke-width="2" stroke-opacity="1"></use></g></g><g><use xlink:href="#aE4QLR5Kc" opacity="1" fill="#254399" fill-opacity="1"></use><g><use xlink:href="#aE4QLR5Kc" opacity="1" fill-opacity="0" stroke="#000000" stroke-width="2" stroke-opacity="1"></use></g></g><g><use xlink:href="#ahBxambV" opacity="1" fill="#ffffff" fill-opacity="1"></use><g><use xlink:href="#ahBxambV" opacity="1" fill-opacity="0" stroke="#000000" stroke-width="2" stroke-opacity="1"></use></g></g><g><use xlink:href="#b1SYaM2rL" opacity="1" fill="#ffffff" fill-opacity="1"></use><g><use xlink:href="#b1SYaM2rL" opacity="1" fill-opacity="0" stroke="#000000" stroke-width="2" stroke-opacity="1"></use></g></g><g><use xlink:href="#a1hxU3JcD8" opacity="1" fill="#ffde05" fill-opacity="1"></use><g><use xlink:href="#a1hxU3JcD8" opacity="1" fill-opacity="0" stroke="#000000" stroke-width="2" stroke-opacity="1"></use></g></g><g><use xlink:href="#cf7Pblog9" opacity="1" fill="#ffffff" fill-opacity="1"></use><g><use xlink:href="#cf7Pblog9" opacity="1" fill-opacity="0" stroke="#000000" stroke-width="2" stroke-opacity="1"></use></g></g><g><use xlink:href="#b1cOT6YQp5" opacity="1" fill="#ffffff" fill-opacity="1"></use><g><use xlink:href="#b1cOT6YQp5" opacity="1" fill-opacity="0" stroke="#000000" stroke-width="2" stroke-opacity="1"></use></g></g><g><use xlink:href="#fjm2ozXOa" opacity="1" fill="#ffffff" fill-opacity="1"></use><g><use xlink:href="#fjm2ozXOa" opacity="1" fill-opacity="0" stroke="#000000" stroke-width="2" stroke-opacity="1"></use></g></g><g><use xlink:href="#f1RVxUFvhm" opacity="1" fill="#ffffff" fill-opacity="1"></use><g><use xlink:href="#f1RVxUFvhm" opacity="1" fill-opacity="0" stroke="#000000" stroke-width="2" stroke-opacity="1"></use></g></g><g><use xlink:href="#b1DtmZP14s" opacity="1" fill="#ffffff" fill-opacity="1"></use><g><use xlink:href="#b1DtmZP14s" opacity="1" fill-opacity="0" stroke="#000000" stroke-width="2" stroke-opacity="1"></use></g></g><g><use xlink:href="#c2BW1Fvel" opacity="1" fill="#ffffff" fill-opacity="1"></use><g><use xlink:href="#c2BW1Fvel" opacity="1" fill-opacity="0" stroke="#000000" stroke-width="2" stroke-opacity="1"></use></g></g><g><use xlink:href="#b4YdN5q1f" opacity="1" fill="#ffffff" fill-opacity="1"></use><g><use xlink:href="#b4YdN5q1f" opacity="1" fill-opacity="0" stroke="#000000" stroke-width="2" stroke-opacity="1"></use></g></g><g><use xlink:href="#b2YwiJ33tb" opacity="1" fill="#ffffff" fill-opacity="1"></use><g><use xlink:href="#b2YwiJ33tb" opacity="1" fill-opacity="0" stroke="#000000" stroke-width="2" stroke-opacity="1"></use></g></g><g><use xlink:href="#a7a15xUKM4" opacity="1" fill="#ffffff" fill-opacity="1"></use><g><use xlink:href="#a7a15xUKM4" opacity="1" fill-opacity="0" stroke="#000000" stroke-width="2" stroke-opacity="1"></use></g></g><g><g><use xlink:href="#bKL2cA7F" opacity="1" fill="#ed2027" fill-opacity="1"></use><g><use xlink:href="#bKL2cA7F" opacity="1" fill-opacity="0" stroke="#000000" stroke-width="2" stroke-opacity="1"></use></g></g><g><use xlink:href="#bDz992x3" opacity="1" fill="#ed2027" fill-opacity="1"></use><g><use xlink:href="#bDz992x3" opacity="1" fill-opacity="0" stroke="#000000" stroke-width="2" stroke-opacity="1"></use></g></g><g><use xlink:href="#bh6dHEV4" opacity="1" fill="#ed2027" fill-opacity="1"></use><g><use xlink:href="#bh6dHEV4" opacity="1" fill-opacity="0" stroke="#000000" stroke-width="2" stroke-opacity="1"></use></g></g><g><use xlink:href="#a1hSLn9cPo" opacity="1" fill="#ed2027" fill-opacity="1"></use><g><use xlink:href="#a1hSLn9cPo" opacity="1" fill-opacity="0" stroke="#000000" stroke-width="2" stroke-opacity="1"></use></g></g></g><g><g><use xlink:href="#a3bj2tgS23" opacity="1" fill="#05a24b" fill-opacity="1"></use><g><use xlink:href="#a3bj2tgS23" opacity="1" fill-opacity="0" stroke="#000000" stroke-width="2" stroke-opacity="1"></use></g></g><g><use xlink:href="#d6FU3CVGzp" opacity="1" fill="#05a24b" fill-opacity="1"></use><g><use xlink:href="#d6FU3CVGzp" opacity="1" fill-opacity="0" stroke="#000000" stroke-width="2" stroke-opacity="1"></use></g></g><g><use xlink:href="#a1N7Fgz96f" opacity="1" fill="#05a24b" fill-opacity="1"></use><g><use xlink:href="#a1N7Fgz96f" opacity="1" fill-opacity="0" stroke="#000000" stroke-width="2" stroke-opacity="1"></use></g></g><g><use xlink:href="#dakyoCB0Gf" opacity="1" fill="#05a24b" fill-opacity="1"></use><g><use xlink:href="#dakyoCB0Gf" opacity="1" fill-opacity="0" stroke="#000000" stroke-width="2" stroke-opacity="1"></use></g></g></g><g><g><use xlink:href="#aiCqxvezA" opacity="1" fill="#ffde05" fill-opacity="1"></use><g><use xlink:href="#aiCqxvezA" opacity="1" fill-opacity="0" stroke="#000000" stroke-width="2" stroke-opacity="1"></use></g></g><g><use xlink:href="#c1GrWYGtti" opacity="1" fill="#ffde05" fill-opacity="1"></use><g><use xlink:href="#c1GrWYGtti" opacity="1" fill-opacity="0" stroke="#000000" stroke-width="2" stroke-opacity="1"></use></g></g><g><use xlink:href="#bWRImxgzm" opacity="1" fill="#ffde05" fill-opacity="1"></use><g><use xlink:href="#bWRImxgzm" opacity="1" fill-opacity="0" stroke="#000000" stroke-width="2" stroke-opacity="1"></use></g></g><g><use xlink:href="#aD9rCQuAF" opacity="1" fill="#ffde05" fill-opacity="1"></use><g><use xlink:href="#aD9rCQuAF" opacity="1" fill-opacity="0" stroke="#000000" stroke-width="2" stroke-opacity="1"></use></g></g></g><g><g><use xlink:href="#f3C00WSnel" opacity="1" fill="#254399" fill-opacity="1"></use><g><use xlink:href="#f3C00WSnel" opacity="1" fill-opacity="0" stroke="#000000" stroke-width="2" stroke-opacity="1"></use></g></g><g><use xlink:href="#cRHaw54H3" opacity="1" fill="#254399" fill-opacity="1"></use><g><use xlink:href="#cRHaw54H3" opacity="1" fill-opacity="0" stroke="#000000" stroke-width="2" stroke-opacity="1"></use></g></g><g><use xlink:href="#c11HSlludv" opacity="1" fill="#254399" fill-opacity="1"></use><g><use xlink:href="#c11HSlludv" opacity="1" fill-opacity="0" stroke="#000000" stroke-width="2" stroke-opacity="1"></use></g></g><g><use xlink:href="#a58ku0gaGm" opacity="1" fill="#254399" fill-opacity="1"></use><g><use xlink:href="#a58ku0gaGm" opacity="1" fill-opacity="0" stroke="#000000" stroke-width="2" stroke-opacity="1"></use></g></g></g><g><use xlink:href="#c4XqWIV4rn" opacity="1" fill="#254399" fill-opacity="1"></use><g><use xlink:href="#c4XqWIV4rn" opacity="1" fill-opacity="0" stroke="#000000" stroke-width="2" stroke-opacity="1"></use></g></g><g><use xlink:href="#c8HfdIWi0" opacity="1" fill="#05a24b" fill-opacity="1"></use><g><use xlink:href="#c8HfdIWi0" opacity="1" fill-opacity="0" stroke="#000000" stroke-width="2" stroke-opacity="1"></use></g></g><g><use xlink:href="#d1vpK6Cowq" opacity="1" fill="#ed2027" fill-opacity="1"></use><g><use xlink:href="#d1vpK6Cowq" opacity="1" fill-opacity="0" stroke="#000000" stroke-width="2" stroke-opacity="1"></use></g></g><g><use xlink:href="#c9KRVVq0R" opacity="1" fill="#ffde05" fill-opacity="1"></use><g><use xlink:href="#c9KRVVq0R" opacity="1" fill-opacity="0" stroke="#000000" stroke-width="2" stroke-opacity="1"></use></g></g></g></g></svg>